<svg width="80" height="60" viewBox="0 0 80 60" fill="none" xmlns="http://www.w3.org/2000/svg">
<path d="M22.7646 58H15.6807V11.04L1.47461 16.2578V9.85938L21.6602 2.28027H22.7646V58ZM78.1797 34.3486C78.1797 42.6006 76.7705 48.7324 73.9521 52.7441C71.1338 56.7559 66.7285 58.7617 60.7363 58.7617C54.8203 58.7617 50.4404 56.8066 47.5967 52.8965C44.7529 48.9609 43.2803 43.0957 43.1787 35.3008V25.8936C43.1787 17.7432 44.5879 11.6875 47.4062 7.72656C50.2246 3.76562 54.6426 1.78516 60.6602 1.78516C66.627 1.78516 71.0195 3.70215 73.8379 7.53613C76.6562 11.3447 78.1035 17.2354 78.1797 25.208V34.3486ZM71.1338 24.7129C71.1338 18.7461 70.2959 14.4043 68.6201 11.6875C66.9443 8.94531 64.291 7.57422 60.6602 7.57422C57.0547 7.57422 54.4268 8.93262 52.7764 11.6494C51.126 14.3662 50.2754 18.543 50.2246 24.1797V35.4531C50.2246 41.4453 51.0879 45.876 52.8145 48.7451C54.5664 51.5889 57.207 53.0107 60.7363 53.0107C64.2148 53.0107 66.792 51.665 68.4678 48.9736C70.1689 46.2822 71.0576 42.042 71.1338 36.2529V24.7129Z" fill="black"/>
<path d="M22.7646 58V59H23.7646V58H22.7646ZM15.6807 58H14.6807V59H15.6807V58ZM15.6807 11.04H16.6807V9.60743L15.3359 10.1014L15.6807 11.04ZM1.47461 16.2578H0.474609V17.6904L1.81938 17.1965L1.47461 16.2578ZM1.47461 9.85938L1.1231 8.92319L0.474609 9.16668V9.85938H1.47461ZM21.6602 2.28027V1.28027H21.4786L21.3086 1.34409L21.6602 2.28027ZM22.7646 2.28027H23.7646V1.28027H22.7646V2.28027ZM22.7646 57H15.6807V59H22.7646V57ZM16.6807 58V11.04H14.6807V58H16.6807ZM15.3359 10.1014L1.12984 15.3191L1.81938 17.1965L16.0254 11.9787L15.3359 10.1014ZM2.47461 16.2578V9.85938H0.474609V16.2578H2.47461ZM1.82612 10.7956L22.0117 3.21646L21.3086 1.34409L1.1231 8.92319L1.82612 10.7956ZM21.6602 3.28027H22.7646V1.28027H21.6602V3.28027ZM21.7646 2.28027V58H23.7646V2.28027H21.7646ZM47.5967 52.8965L46.7861 53.4822L46.7879 53.4847L47.5967 52.8965ZM43.1787 35.3008H42.1786L42.1788 35.3138L43.1787 35.3008ZM73.8379 7.53613L73.0322 8.12842L73.034 8.13098L73.8379 7.53613ZM78.1797 25.208H79.1797L79.1796 25.1985L78.1797 25.208ZM68.6201 11.6875L67.7668 12.209L67.769 12.2125L68.6201 11.6875ZM50.2246 24.1797L49.2246 24.1707V24.1797H50.2246ZM52.8145 48.7451L51.9576 49.2608L51.9631 49.2696L52.8145 48.7451ZM68.4678 48.9736L67.6225 48.4393L67.6189 48.4451L68.4678 48.9736ZM71.1338 36.2529L72.1338 36.2661V36.2529H71.1338ZM77.1797 34.3486C77.1797 42.5213 75.7777 48.4061 73.1339 52.1693L74.7704 53.319C77.7633 49.0588 79.1797 42.6799 79.1797 34.3486H77.1797ZM73.1339 52.1693C70.5453 55.8539 66.4847 57.7617 60.7363 57.7617V59.7617C66.9724 59.7617 71.7222 57.6578 74.7704 53.319L73.1339 52.1693ZM60.7363 57.7617C55.0599 57.7617 51.0182 55.9009 48.4054 52.3083L46.7879 53.4847C49.8626 57.7123 54.5807 59.7617 60.7363 59.7617V57.7617ZM48.4072 52.3108C45.7371 48.6156 44.279 42.9913 44.1786 35.2878L42.1788 35.3138C42.2815 43.2001 43.7688 49.3063 46.7861 53.4822L48.4072 52.3108ZM44.1787 35.3008V25.8936H42.1787V35.3008H44.1787ZM44.1787 25.8936C44.1787 17.8241 45.5802 12.0177 48.221 8.30632L46.5915 7.14681C43.5956 11.3573 42.1787 17.6622 42.1787 25.8936H44.1787ZM48.221 8.30632C50.8067 4.6724 54.8797 2.78516 60.6602 2.78516V0.785156C54.4055 0.785156 49.6425 2.85885 46.5915 7.14681L48.221 8.30632ZM60.6602 2.78516C66.3987 2.78516 70.4498 4.61544 73.0322 8.12842L74.6436 6.94384C71.5893 2.78885 66.8553 0.785156 60.6602 0.785156V2.78516ZM73.034 8.13098C75.667 11.6891 77.1043 17.3258 77.1797 25.2176L79.1796 25.1985C79.1027 17.1449 77.6455 11.0004 74.6417 6.94129L73.034 8.13098ZM77.1797 25.208V34.3486H79.1797V25.208H77.1797ZM72.1338 24.7129C72.1338 18.6973 71.2972 14.1228 69.4712 11.1625L67.769 12.2125C69.2946 14.6858 70.1338 18.7949 70.1338 24.7129H72.1338ZM69.4734 11.166C67.5896 8.0834 64.5856 6.57422 60.6602 6.57422V8.57422C63.9965 8.57422 66.2991 9.80722 67.7668 12.209L69.4734 11.166ZM60.6602 6.57422C56.7612 6.57422 53.7807 8.07011 51.9217 11.1302L53.631 12.1686C55.0729 9.79512 57.3482 8.57422 60.6602 8.57422V6.57422ZM51.9217 11.1302C50.1306 14.0787 49.276 18.4744 49.2246 24.1707L51.2246 24.1887C51.2748 18.6115 52.1214 14.6537 53.631 12.1686L51.9217 11.1302ZM49.2246 24.1797V35.4531H51.2246V24.1797H49.2246ZM49.2246 35.4531C49.2246 41.5033 50.0894 46.1561 51.9576 49.2607L53.6713 48.2295C52.0864 45.5958 51.2246 41.3874 51.2246 35.4531H49.2246ZM51.9631 49.2696C53.9092 52.4286 56.8838 54.0107 60.7363 54.0107V52.0107C57.5303 52.0107 55.2236 50.7491 53.6659 48.2206L51.9631 49.2696ZM60.7363 54.0107C64.5201 54.0107 67.4381 52.5193 69.3167 49.5022L67.6189 48.4451C66.1459 50.8107 63.9096 52.0107 60.7363 52.0107V54.0107ZM69.3131 49.5079C71.1646 46.5786 72.0568 42.1102 72.1337 36.2661L70.1339 36.2398C70.0584 41.9738 69.1732 45.9859 67.6225 48.4393L69.3131 49.5079ZM72.1338 36.2529V24.7129H70.1338V36.2529H72.1338Z" fill="#525151"/>
</svg>
