<svg width="53" height="75" viewBox="0 0 53 75" fill="none" xmlns="http://www.w3.org/2000/svg">
<path d="M51.5645 74H2.83398V64.332L25.832 39.8203C28.9896 36.3698 31.3171 33.3587 32.8145 30.7871C34.3444 28.2155 35.1094 25.7741 35.1094 23.4629C35.1094 20.3053 34.3118 17.8314 32.7168 16.041C31.1217 14.2181 28.8431 13.3066 25.8809 13.3066C22.6908 13.3066 20.168 14.4134 18.3125 16.627C16.4896 18.8079 15.5781 21.6888 15.5781 25.2695H1.41797C1.41797 20.9401 2.44336 16.985 4.49414 13.4043C6.57747 9.82357 9.50716 7.02409 13.2832 5.00586C17.0592 2.95508 21.3398 1.92969 26.125 1.92969C33.4492 1.92969 39.1296 3.6875 43.166 7.20312C47.235 10.7188 49.2695 15.6829 49.2695 22.0957C49.2695 25.6113 48.3581 29.1921 46.5352 32.8379C44.7122 36.4837 41.5872 40.7318 37.1602 45.582L20.998 62.623H51.5645V74Z" fill="black"/>
<path d="M51.5645 74V75H52.5645V74H51.5645ZM2.83398 74H1.83398V75H2.83398V74ZM2.83398 64.332L2.10472 63.6478L1.83398 63.9364V64.332H2.83398ZM25.832 39.8203L26.5614 40.5046L26.5698 40.4954L25.832 39.8203ZM32.8145 30.7871L31.955 30.2758L31.9503 30.2839L32.8145 30.7871ZM32.7168 16.041L31.9642 16.6995L31.9701 16.7062L32.7168 16.041ZM18.3125 16.627L17.5461 15.9846L17.5452 15.9856L18.3125 16.627ZM15.5781 25.2695V26.2695H16.5781V25.2695H15.5781ZM1.41797 25.2695H0.417969V26.2695H1.41797V25.2695ZM4.49414 13.4043L3.62977 12.9014L3.62638 12.9073L4.49414 13.4043ZM13.2832 5.00586L13.7546 5.88781L13.7605 5.88462L13.2832 5.00586ZM43.166 7.20312L42.5092 7.95721L42.5122 7.95981L43.166 7.20312ZM46.5352 32.8379L47.4296 33.2851L46.5352 32.8379ZM37.1602 45.582L37.8857 46.2702L37.8923 46.2632L37.8987 46.2562L37.1602 45.582ZM20.998 62.623L20.2725 61.9349L18.6714 63.623H20.998V62.623ZM51.5645 62.623H52.5645V61.623H51.5645V62.623ZM51.5645 73H2.83398V75H51.5645V73ZM3.83398 74V64.332H1.83398V74H3.83398ZM3.56325 65.0163L26.5613 40.5045L25.1028 39.1361L2.10472 63.6478L3.56325 65.0163ZM26.5698 40.4954C29.7515 37.0185 32.131 33.9481 33.6786 31.2903L31.9503 30.2839C30.5031 32.7693 28.2277 35.7211 25.0943 39.1452L26.5698 40.4954ZM33.6739 31.2984C35.2693 28.6167 36.1094 25.9997 36.1094 23.4629H34.1094C34.1094 25.5484 33.4195 27.8142 31.955 30.2758L33.6739 31.2984ZM36.1094 23.4629C36.1094 20.1393 35.2677 17.401 33.4635 15.3758L31.9701 16.7062C33.356 18.2618 34.1094 20.4714 34.1094 23.4629H36.1094ZM33.4694 15.3825C31.6428 13.295 29.0616 12.3066 25.8809 12.3066V14.3066C28.6246 14.3066 30.6007 15.1412 31.9642 16.6995L33.4694 15.3825ZM25.8809 12.3066C22.4299 12.3066 19.6129 13.5189 17.5461 15.9846L19.0789 17.2694C20.723 15.3079 22.9516 14.3066 25.8809 14.3066V12.3066ZM17.5452 15.9856C15.5362 18.3893 14.5781 21.5169 14.5781 25.2695H16.5781C16.5781 21.8607 17.4429 19.2266 19.0798 17.2683L17.5452 15.9856ZM15.5781 24.2695H1.41797V26.2695H15.5781V24.2695ZM2.41797 25.2695C2.41797 21.1055 3.4021 17.3232 5.3619 13.9013L3.62638 12.9073C1.48462 16.6469 0.417969 20.7747 0.417969 25.2695H2.41797ZM5.35849 13.9072C7.34529 10.4924 10.1364 7.82165 13.7546 5.88779L12.8118 4.12393C8.87794 6.22652 5.80965 9.15477 3.62979 12.9014L5.35849 13.9072ZM13.7605 5.88462C17.3739 3.92212 21.4873 2.92969 26.125 2.92969V0.929688C21.1924 0.929688 16.7445 1.98803 12.8059 4.1271L13.7605 5.88462ZM26.125 2.92969C33.297 2.92969 38.7124 4.65028 42.5092 7.95721L43.8228 6.44904C39.5467 2.72472 33.6015 0.929688 26.125 0.929688V2.92969ZM42.5122 7.95981C46.3188 11.2487 48.2695 15.912 48.2695 22.0957H50.2695C50.2695 15.4538 48.1512 10.1888 43.8198 6.44644L42.5122 7.95981ZM48.2695 22.0957C48.2695 25.4331 47.4053 28.8616 45.6407 32.3907L47.4296 33.2851C49.3109 29.5226 50.2695 25.7896 50.2695 22.0957H48.2695ZM45.6407 32.3907C43.8763 35.9195 40.8194 40.0896 36.4216 44.9079L37.8987 46.2562C42.355 41.3739 45.5482 37.048 47.4296 33.2851L45.6407 32.3907ZM36.4346 44.8939L20.2725 61.9349L21.7236 63.3112L37.8857 46.2702L36.4346 44.8939ZM20.998 63.623H51.5645V61.623H20.998V63.623ZM50.5645 62.623V74H52.5645V62.623H50.5645Z" fill="#E6E3E3"/>
</svg>
