<svg width="52" height="76" viewBox="0 0 52 76" fill="none" xmlns="http://www.w3.org/2000/svg">
<path d="M17.1895 32.2031H24.709C28.2897 32.2031 30.9427 31.3079 32.668 29.5176C34.3932 27.7272 35.2559 25.3509 35.2559 22.3887C35.2559 19.5241 34.3932 17.2943 32.668 15.6992C30.9753 14.1042 28.6315 13.3066 25.6367 13.3066C22.9349 13.3066 20.6725 14.0553 18.8496 15.5527C17.0267 17.0176 16.1152 18.9382 16.1152 21.3145H2.00391C2.00391 17.6035 2.99674 14.2832 4.98242 11.3535C7.00065 8.39128 9.80013 6.08008 13.3809 4.41992C16.9941 2.75977 20.9655 1.92969 25.2949 1.92969C32.8145 1.92969 38.7064 3.73633 42.9707 7.34961C47.235 10.9303 49.3672 15.8783 49.3672 22.1934C49.3672 25.4486 48.3743 28.4434 46.3887 31.1777C44.403 33.9121 41.7988 36.0117 38.5762 37.4766C42.5801 38.9089 45.5586 41.0573 47.5117 43.9219C49.4974 46.7865 50.4902 50.1719 50.4902 54.0781C50.4902 60.3932 48.179 65.4551 43.5566 69.2637C38.9668 73.0723 32.8796 74.9766 25.2949 74.9766C18.1986 74.9766 12.388 73.1048 7.86328 69.3613C3.37109 65.6178 1.125 60.6699 1.125 54.5176H15.2363C15.2363 57.1868 16.2292 59.3678 18.2148 61.0605C20.2331 62.7533 22.707 63.5996 25.6367 63.5996C28.9896 63.5996 31.61 62.7207 33.498 60.9629C35.4186 59.1725 36.3789 56.8125 36.3789 53.8828C36.3789 46.7865 32.4727 43.2383 24.6602 43.2383H17.1895V32.2031Z" fill="black"/>
<path d="M17.1895 32.2031V31.2031H16.1895V32.2031H17.1895ZM32.668 15.6992L31.9821 16.427L31.9891 16.4335L32.668 15.6992ZM18.8496 15.5527L19.476 16.3323L19.4843 16.3255L18.8496 15.5527ZM16.1152 21.3145V22.3145H17.1152V21.3145H16.1152ZM2.00391 21.3145H1.00391V22.3145H2.00391V21.3145ZM4.98242 11.3535L4.156 10.7905L4.15464 10.7925L4.98242 11.3535ZM13.3809 4.41992L12.9634 3.51124L12.9602 3.51269L13.3809 4.41992ZM42.9707 7.34961L42.3242 8.11256L42.3276 8.11543L42.9707 7.34961ZM46.3887 31.1777L45.5795 30.5901L46.3887 31.1777ZM38.5762 37.4766L38.1624 36.5662L35.9163 37.5871L38.2394 38.4181L38.5762 37.4766ZM47.5117 43.9219L46.6855 44.4852L46.6899 44.4916L47.5117 43.9219ZM43.5566 69.2637L42.9207 68.4919L42.9181 68.4941L43.5566 69.2637ZM7.86328 69.3613L7.22309 70.1296L7.22583 70.1318L7.86328 69.3613ZM1.125 54.5176V53.5176H0.125V54.5176H1.125ZM15.2363 54.5176H16.2363V53.5176H15.2363V54.5176ZM18.2148 61.0605L17.5661 61.8216L17.5722 61.8267L18.2148 61.0605ZM33.498 60.9629L34.1795 61.6948L34.1799 61.6944L33.498 60.9629ZM17.1895 43.2383H16.1895V44.2383H17.1895V43.2383ZM17.1895 33.2031H24.709V31.2031H17.1895V33.2031ZM24.709 33.2031C28.4406 33.2031 31.4044 32.27 33.388 30.2115L31.9479 28.8237C30.4811 30.3459 28.1388 31.2031 24.709 31.2031V33.2031ZM33.388 30.2115C35.3265 28.1999 36.2559 25.5569 36.2559 22.3887H34.2559C34.2559 25.1449 33.46 27.2545 31.9479 28.8237L33.388 30.2115ZM36.2559 22.3887C36.2559 19.3112 35.3207 16.7898 33.3468 14.9649L31.9891 16.4335C33.4658 17.7987 34.2559 19.737 34.2559 22.3887H36.2559ZM33.3538 14.9714C31.4267 13.1556 28.8105 12.3066 25.6367 12.3066V14.3066C28.4526 14.3066 30.5238 15.0528 31.9822 16.427L33.3538 14.9714ZM25.6367 12.3066C22.7389 12.3066 20.2423 13.1146 18.2149 14.78L19.4843 16.3255C21.1027 14.9961 23.1309 14.3066 25.6367 14.3066V12.3066ZM18.2232 14.7732C16.1597 16.4314 15.1152 18.6408 15.1152 21.3145H17.1152C17.1152 19.2355 17.8937 17.6037 19.476 16.3322L18.2232 14.7732ZM16.1152 20.3145H2.00391V22.3145H16.1152V20.3145ZM3.00391 21.3145C3.00391 17.7933 3.94238 14.6704 5.8102 11.9146L4.15464 10.7925C2.05111 13.896 1.00391 17.4137 1.00391 21.3145H3.00391ZM5.80884 11.9166C7.71528 9.11842 10.3676 6.91925 13.8015 5.32716L12.9602 3.51269C9.23271 5.24091 6.28603 7.66414 4.156 10.7905L5.80884 11.9166ZM13.7984 5.3286C17.2694 3.7338 21.0967 2.92969 25.2949 2.92969V0.929688C20.8343 0.929688 16.7189 1.78573 12.9634 3.51125L13.7984 5.3286ZM25.2949 2.92969C32.6599 2.92969 38.2947 4.69818 42.3242 8.11255L43.6172 6.58667C39.1181 2.77447 32.969 0.929688 25.2949 0.929688V2.92969ZM42.3276 8.11543C46.3337 11.4793 48.3672 16.1293 48.3672 22.1934H50.3672C50.3672 15.6272 48.1363 10.3813 43.6138 6.58379L42.3276 8.11543ZM48.3672 22.1934C48.3672 25.229 47.4462 28.0196 45.5795 30.5901L47.1978 31.7653C49.3025 28.8671 50.3672 25.6681 50.3672 22.1934H48.3672ZM45.5795 30.5901C43.7004 33.1778 41.2353 35.1694 38.1624 36.5662L38.99 38.3869C42.3623 36.854 45.1056 34.6464 47.1978 31.7653L45.5795 30.5901ZM38.2394 38.4181C42.0901 39.7956 44.8762 41.8316 46.6855 44.4852L48.3379 43.3585C46.241 40.283 43.07 38.0221 38.913 36.535L38.2394 38.4181ZM46.6899 44.4916C48.5458 47.169 49.4902 50.3499 49.4902 54.0781H51.4902C51.4902 49.9938 50.449 46.4039 48.3336 43.3522L46.6899 44.4916ZM49.4902 54.0781C49.4902 60.1132 47.2986 64.8848 42.9207 68.4919L44.1925 70.0354C49.0595 66.0253 51.4902 60.6733 51.4902 54.0781H49.4902ZM42.9181 68.4941C38.5519 72.1171 32.7111 73.9766 25.2949 73.9766V75.9766C33.048 75.9766 39.3817 74.0274 44.1952 70.0332L42.9181 68.4941ZM25.2949 73.9766C18.3809 73.9766 12.8108 72.1568 8.50074 68.5908L7.22583 70.1318C11.9652 74.0529 18.0162 75.9766 25.2949 75.9766V73.9766ZM8.50347 68.5931C4.25256 65.0507 2.125 60.3909 2.125 54.5176H0.125C0.125 60.949 2.48963 66.185 7.2231 70.1295L8.50347 68.5931ZM1.125 55.5176H15.2363V53.5176H1.125V55.5176ZM14.2363 54.5176C14.2363 57.472 15.3517 59.9339 17.5661 61.8216L18.8636 60.2995C17.1066 58.8018 16.2363 56.9017 16.2363 54.5176H14.2363ZM17.5722 61.8267C19.791 63.6876 22.5002 64.5996 25.6367 64.5996V62.5996C22.9139 62.5996 20.6752 61.8189 18.8575 60.2944L17.5722 61.8267ZM25.6367 64.5996C29.1643 64.5996 32.0562 63.6717 34.1795 61.6948L32.8166 60.231C31.1639 61.7698 28.8149 62.5996 25.6367 62.5996V64.5996ZM34.1799 61.6944C36.328 59.6919 37.3789 57.0543 37.3789 53.8828H35.3789C35.3789 56.5707 34.5092 58.6532 32.8162 60.2314L34.1799 61.6944ZM37.3789 53.8828C37.3789 50.1544 36.3483 47.1818 34.1216 45.1592C31.9131 43.1532 28.698 42.2383 24.6602 42.2383V44.2383C28.4348 44.2383 31.0791 45.0975 32.7769 46.6396C34.4564 48.1652 35.3789 50.5149 35.3789 53.8828H37.3789ZM24.6602 42.2383H17.1895V44.2383H24.6602V42.2383ZM18.1895 43.2383V32.2031H16.1895V43.2383H18.1895Z" fill="#E6E3E3"/>
</svg>
