<svg width="55" height="74" viewBox="0 0 55 74" fill="none" xmlns="http://www.w3.org/2000/svg">
<path d="M45.582 46.2422H53.6387V57.6191H45.582V73H31.4707V57.6191H2.32031L1.68555 48.7324L31.3242 1.90625H45.582V46.2422ZM15.748 46.2422H31.4707V21.1445L30.543 22.7559L15.748 46.2422Z" fill="black"/>
<path d="M45.582 46.2422H44.582V47.2422H45.582V46.2422ZM53.6387 46.2422H54.6387V45.2422H53.6387V46.2422ZM53.6387 57.6191V58.6191H54.6387V57.6191H53.6387ZM45.582 57.6191V56.6191H44.582V57.6191H45.582ZM45.582 73V74H46.582V73H45.582ZM31.4707 73H30.4707V74H31.4707V73ZM31.4707 57.6191H32.4707V56.6191H31.4707V57.6191ZM2.32031 57.6191L1.32285 57.6904L1.38919 58.6191H2.32031V57.6191ZM1.68555 48.7324L0.840582 48.1976L0.664651 48.4756L0.688088 48.8037L1.68555 48.7324ZM31.3242 1.90625V0.90625H30.7737L30.4793 1.37143L31.3242 1.90625ZM45.582 1.90625H46.582V0.90625H45.582V1.90625ZM15.748 46.2422L14.9019 45.7092L13.9362 47.2422H15.748V46.2422ZM31.4707 46.2422V47.2422H32.4707V46.2422H31.4707ZM31.4707 21.1445H32.4707V17.4035L30.6041 20.6456L31.4707 21.1445ZM30.543 22.7559L31.3891 23.2889L31.3997 23.272L31.4096 23.2548L30.543 22.7559ZM45.582 47.2422H53.6387V45.2422H45.582V47.2422ZM52.6387 46.2422V57.6191H54.6387V46.2422H52.6387ZM53.6387 56.6191H45.582V58.6191H53.6387V56.6191ZM44.582 57.6191V73H46.582V57.6191H44.582ZM45.582 72H31.4707V74H45.582V72ZM32.4707 73V57.6191H30.4707V73H32.4707ZM31.4707 56.6191H2.32031V58.6191H31.4707V56.6191ZM3.31777 57.5479L2.68301 48.6612L0.688088 48.8037L1.32285 57.6904L3.31777 57.5479ZM2.53051 49.2672L32.1692 2.44107L30.4793 1.37143L0.840582 48.1976L2.53051 49.2672ZM31.3242 2.90625H45.582V0.90625H31.3242V2.90625ZM44.582 1.90625V46.2422H46.582V1.90625H44.582ZM15.748 47.2422H31.4707V45.2422H15.748V47.2422ZM32.4707 46.2422V21.1445H30.4707V46.2422H32.4707ZM30.6041 20.6456L29.6763 22.2569L31.4096 23.2548L32.3373 21.6435L30.6041 20.6456ZM29.6969 22.2229L14.9019 45.7092L16.5942 46.7752L31.3891 23.2889L29.6969 22.2229Z" fill="#E6E3E3"/>
</svg>
