<svg width="51" height="75" viewBox="0 0 51 75" fill="none" xmlns="http://www.w3.org/2000/svg">
<path d="M2.93359 38.0391L7.03516 1.90625H46.8789V13.6738H18.6074L16.8496 28.957C20.2025 27.1667 23.7669 26.2715 27.543 26.2715C34.3138 26.2715 39.6198 28.3711 43.4609 32.5703C47.3021 36.7695 49.2227 42.6452 49.2227 50.1973C49.2227 54.7871 48.2461 58.9049 46.293 62.5508C44.3724 66.1641 41.6055 68.9798 37.9922 70.998C34.3789 72.9837 30.1146 73.9766 25.1992 73.9766C20.9023 73.9766 16.9147 73.1139 13.2363 71.3887C9.55794 69.6309 6.64453 67.1732 4.49609 64.0156C2.38021 60.8581 1.25716 57.2611 1.12695 53.2246H15.0918C15.3848 56.1868 16.4102 58.498 18.168 60.1582C19.9583 61.7858 22.2858 62.5996 25.1504 62.5996C28.3405 62.5996 30.7982 61.4603 32.5234 59.1816C34.2487 56.8704 35.1113 53.6152 35.1113 49.416C35.1113 45.3796 34.1185 42.2871 32.1328 40.1387C30.1471 37.9902 27.3314 36.916 23.6855 36.916C20.3327 36.916 17.6146 37.7949 15.5312 39.5527L14.1641 40.8223L2.93359 38.0391Z" fill="black"/>
<path d="M2.93359 38.0391L1.93997 37.9263L1.84096 38.7985L2.69304 39.0097L2.93359 38.0391ZM7.03516 1.90625V0.90625H6.14225L6.04154 1.79346L7.03516 1.90625ZM46.8789 1.90625H47.8789V0.90625H46.8789V1.90625ZM46.8789 13.6738V14.6738H47.8789V13.6738H46.8789ZM18.6074 13.6738V12.6738H17.7158L17.614 13.5596L18.6074 13.6738ZM16.8496 28.957L15.8562 28.8428L15.6382 30.7375L17.3206 29.8391L16.8496 28.957ZM43.4609 32.5703L42.7231 33.2453L43.4609 32.5703ZM46.293 62.5508L45.4115 62.0786L45.41 62.0814L46.293 62.5508ZM37.9922 70.998L38.4738 71.8745L38.4798 71.8711L37.9922 70.998ZM13.2363 71.3887L12.8051 72.291L12.8117 72.294L13.2363 71.3887ZM4.49609 64.0156L3.66534 64.5723L3.66933 64.5782L4.49609 64.0156ZM1.12695 53.2246V52.2246H0.0941749L0.127473 53.2569L1.12695 53.2246ZM15.0918 53.2246L16.0869 53.1262L15.9978 52.2246H15.0918V53.2246ZM18.168 60.1582L17.4813 60.8852L17.4883 60.8917L17.4953 60.8981L18.168 60.1582ZM32.5234 59.1816L33.3207 59.7853L33.3248 59.7798L32.5234 59.1816ZM15.5312 39.5527L14.8864 38.7884L14.8682 38.8038L14.8508 38.8199L15.5312 39.5527ZM14.1641 40.8223L13.9235 41.7929L14.4483 41.923L14.8445 41.5551L14.1641 40.8223ZM3.92721 38.1519L8.02878 2.01904L6.04154 1.79346L1.93997 37.9263L3.92721 38.1519ZM7.03516 2.90625H46.8789V0.90625H7.03516V2.90625ZM45.8789 1.90625V13.6738H47.8789V1.90625H45.8789ZM46.8789 12.6738H18.6074V14.6738H46.8789V12.6738ZM17.614 13.5596L15.8562 28.8428L17.8431 29.0713L19.6009 13.7881L17.614 13.5596ZM17.3206 29.8391C20.5296 28.1256 23.9324 27.2715 27.543 27.2715V25.2715C23.6015 25.2715 19.8754 26.2077 16.3786 28.0749L17.3206 29.8391ZM27.543 27.2715C34.0911 27.2715 39.1073 29.2924 42.7231 33.2453L44.1988 31.8954C40.1323 27.4498 34.5365 25.2715 27.543 25.2715V27.2715ZM42.7231 33.2453C46.3467 37.2067 48.2227 42.8116 48.2227 50.1973H50.2227C50.2227 42.4788 48.2575 36.3324 44.1988 31.8954L42.7231 33.2453ZM48.2227 50.1973C48.2227 54.6408 47.2786 58.5934 45.4115 62.0786L47.1744 63.023C49.2136 59.2165 50.2227 54.9335 50.2227 50.1973H48.2227ZM45.41 62.0814C43.5807 65.5229 40.952 68.1994 37.5045 70.125L38.4798 71.8711C42.2589 69.7602 45.1641 66.8052 47.176 63.0201L45.41 62.0814ZM37.5106 70.1217C34.0708 72.012 29.9785 72.9766 25.1992 72.9766V74.9766C30.2506 74.9766 34.687 73.9555 38.4738 71.8744L37.5106 70.1217ZM25.1992 72.9766C21.0405 72.9766 17.1989 72.1427 13.661 70.4833L12.8117 72.294C16.6306 74.0852 20.7642 74.9766 25.1992 74.9766V72.9766ZM13.6675 70.4864C10.1375 68.7995 7.36506 66.4545 5.32286 63.4531L3.66933 64.5782C5.924 67.8919 8.97834 70.4622 12.8052 72.2909L13.6675 70.4864ZM5.32682 63.459C3.32179 60.4668 2.251 57.0539 2.12643 53.1924L0.127473 53.2569C0.263325 57.4682 1.43863 61.2493 3.66536 64.5723L5.32682 63.459ZM1.12695 54.2246H15.0918V52.2246H1.12695V54.2246ZM14.0967 53.323C14.4076 56.4675 15.5103 59.0237 17.4813 60.8852L18.8546 59.4312C17.31 57.9724 16.3619 55.9062 16.0869 53.1262L14.0967 53.323ZM17.4953 60.8981C19.5027 62.7231 22.0855 63.5996 25.1504 63.5996V61.5996C22.4861 61.5996 20.414 60.8486 18.8406 59.4183L17.4953 60.8981ZM25.1504 63.5996C28.6119 63.5996 31.3826 62.3451 33.3207 59.7853L31.7262 58.578C30.2138 60.5755 28.0691 61.5996 25.1504 61.5996V63.5996ZM33.3248 59.7798C35.2259 57.233 36.1113 53.7364 36.1113 49.416H34.1113C34.1113 53.4941 33.2715 56.5079 31.7221 58.5834L33.3248 59.7798ZM36.1113 49.416C36.1113 45.2243 35.0794 41.8535 32.8672 39.4599L31.3984 40.8174C33.1576 42.7208 34.1113 45.5348 34.1113 49.416H36.1113ZM32.8672 39.4599C30.6475 37.0583 27.5367 35.916 23.6855 35.916V37.916C27.126 37.916 29.6468 38.9222 31.3984 40.8174L32.8672 39.4599ZM23.6855 35.916C20.1529 35.916 17.1889 36.8457 14.8864 38.7884L16.1761 40.317C18.0403 38.7441 20.5125 37.916 23.6855 37.916V35.916ZM14.8508 38.8199L13.4836 40.0895L14.8445 41.5551L16.2117 40.2855L14.8508 38.8199ZM14.4046 39.8516L3.17414 37.0684L2.69304 39.0097L13.9235 41.7929L14.4046 39.8516Z" fill="#E6E3E3"/>
</svg>
