<svg width="52" height="75" viewBox="0 0 52 75" fill="none" xmlns="http://www.w3.org/2000/svg">
<path d="M40.1152 1.17383V12.7949H38.748C32.3678 12.8926 27.2246 14.5527 23.3184 17.7754C19.4447 20.998 17.1172 25.474 16.3359 31.2031C20.112 27.362 24.8809 25.4414 30.6426 25.4414C36.8275 25.4414 41.7428 27.6549 45.3887 32.082C49.0345 36.5091 50.8574 42.3359 50.8574 49.5625C50.8574 54.1849 49.8483 58.3678 47.8301 62.1113C45.8444 65.8548 43.0124 68.7682 39.334 70.8516C35.6882 72.9349 31.554 73.9766 26.9316 73.9766C19.4447 73.9766 13.39 71.3724 8.76758 66.1641C4.17773 60.9557 1.88281 54.0059 1.88281 45.3145V40.2363C1.88281 32.5215 3.33138 25.7181 6.22852 19.8262C9.1582 13.9017 13.3411 9.32812 18.7773 6.10547C24.2461 2.85026 30.5775 1.20638 37.7715 1.17383H40.1152ZM26.3457 36.7695C24.0671 36.7695 22 37.3717 20.1445 38.5762C18.2891 39.748 16.9219 41.3105 16.043 43.2637V47.5605C16.043 52.2806 16.9707 55.9753 18.8262 58.6445C20.6816 61.2812 23.2858 62.5996 26.6387 62.5996C29.666 62.5996 32.1074 61.4115 33.9629 59.0352C35.8509 56.6263 36.7949 53.5176 36.7949 49.709C36.7949 45.8353 35.8509 42.7103 33.9629 40.334C32.0749 37.9577 29.5358 36.7695 26.3457 36.7695Z" fill="black"/>
<path d="M40.1152 1.17383H41.1152V0.173828H40.1152V1.17383ZM40.1152 12.7949V13.7949H41.1152V12.7949H40.1152ZM38.748 12.7949V11.7949H38.7404L38.7327 11.795L38.748 12.7949ZM23.3184 17.7754L22.682 17.004L22.6788 17.0066L23.3184 17.7754ZM16.3359 31.2031L15.3451 31.068L14.9383 34.0513L17.0491 31.9042L16.3359 31.2031ZM45.3887 32.082L44.6167 32.7177L45.3887 32.082ZM47.8301 62.1113L46.9498 61.6368L46.9467 61.6427L47.8301 62.1113ZM39.334 70.8516L38.8412 69.9814L38.8378 69.9833L39.334 70.8516ZM8.76758 66.1641L8.01733 66.8252L8.01965 66.8278L8.76758 66.1641ZM6.22852 19.8262L5.33212 19.3829L5.33113 19.3849L6.22852 19.8262ZM18.7773 6.10547L19.2873 6.96568L19.2888 6.96476L18.7773 6.10547ZM37.7715 1.17383L37.7715 0.173818L37.767 0.173838L37.7715 1.17383ZM20.1445 38.5762L20.6786 39.4217L20.689 39.415L20.1445 38.5762ZM16.043 43.2637L15.131 42.8533L15.043 43.049V43.2637H16.043ZM18.8262 58.6445L18.005 59.2153L18.0084 59.22L18.8262 58.6445ZM33.9629 59.0352L33.1758 58.4183L33.1747 58.4197L33.9629 59.0352ZM33.9629 40.334L34.7458 39.7119L33.9629 40.334ZM39.1152 1.17383V12.7949H41.1152V1.17383H39.1152ZM40.1152 11.7949H38.748V13.7949H40.1152V11.7949ZM38.7327 11.795C32.1858 11.8952 26.8047 13.6027 22.682 17.004L23.9547 18.5468C27.6445 15.5027 32.5499 13.8899 38.7634 13.7948L38.7327 11.795ZM22.6788 17.0066C18.5846 20.4128 16.1548 25.1303 15.3451 31.068L17.3268 31.3382C18.0796 25.8176 20.3047 21.5833 23.9579 18.5441L22.6788 17.0066ZM17.0491 31.9042C20.623 28.2686 25.1283 26.4414 30.6426 26.4414V24.4414C24.6334 24.4414 19.6009 26.4554 15.6228 30.5021L17.0491 31.9042ZM30.6426 26.4414C36.5554 26.4414 41.1772 28.5412 44.6167 32.7177L46.1606 31.4463C42.3084 26.7687 37.0995 24.4414 30.6426 24.4414V26.4414ZM44.6167 32.7177C48.0801 36.9233 49.8574 42.5061 49.8574 49.5625H51.8574C51.8574 42.1658 49.9889 36.095 46.1606 31.4463L44.6167 32.7177ZM49.8574 49.5625C49.8574 54.034 48.8828 58.0516 46.9499 61.6368L48.7103 62.5859C50.8139 58.6841 51.8574 54.3358 51.8574 49.5625H49.8574ZM46.9467 61.6427C45.05 65.2183 42.3533 67.9922 38.8412 69.9814L39.8268 71.7217C43.6714 69.5442 46.6388 66.4913 48.7135 62.5799L46.9467 61.6427ZM38.8378 69.9833C35.358 71.9718 31.398 72.9766 26.9316 72.9766V74.9766C31.7101 74.9766 36.0183 73.898 39.8301 71.7198L38.8378 69.9833ZM26.9316 72.9766C19.7063 72.9766 13.9326 70.4773 9.5155 65.5003L8.01965 66.8278C12.8473 72.2675 19.183 74.9766 26.9316 74.9766V72.9766ZM9.51783 65.5029C5.1265 60.5198 2.88281 53.826 2.88281 45.3145H0.882812C0.882812 54.1857 3.22897 61.3916 8.01733 66.8252L9.51783 65.5029ZM2.88281 45.3145V40.2363H0.882812V45.3145H2.88281ZM2.88281 40.2363C2.88281 32.6478 4.30712 26 7.1259 20.2674L5.33113 19.3849C2.35564 25.4362 0.882812 32.3951 0.882812 40.2363H2.88281ZM7.1249 20.2694C9.97297 14.51 14.0254 10.085 19.2873 6.96568L18.2674 5.24526C12.6569 8.57124 8.34344 13.2934 5.33213 19.3829L7.1249 20.2694ZM19.2888 6.96476C24.585 3.8123 30.7367 2.20567 37.776 2.17382L37.767 0.173838C30.4182 0.207091 23.9072 1.88822 18.2659 5.24618L19.2888 6.96476ZM37.7715 2.17383H40.1152V0.173828H37.7715V2.17383ZM26.3457 35.7695C23.8799 35.7695 21.6227 36.4244 19.6001 37.7374L20.689 39.415C22.3773 38.319 24.2542 37.7695 26.3457 37.7695V35.7695ZM19.6105 37.7307C17.5935 39.0046 16.0926 40.7166 15.131 42.8533L16.9549 43.674C17.7512 41.9045 18.9847 40.4915 20.6785 39.4217L19.6105 37.7307ZM15.043 43.2637V47.5605H17.043V43.2637H15.043ZM15.043 47.5605C15.043 52.3966 15.9914 56.3184 18.0051 59.2153L19.6473 58.0738C17.95 55.6321 17.043 52.1646 17.043 47.5605H15.043ZM18.0084 59.22C20.0598 62.1352 22.9758 63.5996 26.6387 63.5996V61.5996C23.5958 61.5996 21.3035 60.4273 19.644 58.069L18.0084 59.22ZM26.6387 63.5996C29.9724 63.5996 32.7052 62.2708 34.7511 59.6506L33.1747 58.4197C31.5097 60.5521 29.3596 61.5996 26.6387 61.5996V63.5996ZM34.7499 59.652C36.8068 57.0277 37.7949 53.6854 37.7949 49.709H35.7949C35.7949 53.3498 34.895 56.2249 33.1758 58.4183L34.7499 59.652ZM37.7949 49.709C37.7949 45.6727 36.8093 42.309 34.7458 39.7119L33.1799 40.9561C34.8925 43.1115 35.7949 45.9978 35.7949 49.709H37.7949ZM34.7458 39.7119C32.6572 37.0831 29.8227 35.7695 26.3457 35.7695V37.7695C29.2489 37.7695 31.4926 38.8323 33.1799 40.9561L34.7458 39.7119Z" fill="#E6E3E3"/>
</svg>
