<svg width="54" height="74" viewBox="0 0 54 74" fill="none" xmlns="http://www.w3.org/2000/svg">
<path d="M52.1738 9.81641L24.6836 73H9.79102L37.3301 13.332H1.97852V1.90625H52.1738V9.81641Z" fill="black"/>
<path d="M52.1738 9.81641L53.0908 10.2154L53.1738 10.0245V9.81641H52.1738ZM24.6836 73V74H25.3391L25.6006 73.399L24.6836 73ZM9.79102 73L8.88306 72.5809L8.22811 74H9.79102V73ZM37.3301 13.332L38.238 13.7511L38.893 12.332H37.3301V13.332ZM1.97852 13.332H0.978516V14.332H1.97852V13.332ZM1.97852 1.90625V0.90625H0.978516V1.90625H1.97852ZM52.1738 1.90625H53.1738V0.90625H52.1738V1.90625ZM51.2569 9.41745L23.7666 72.601L25.6006 73.399L53.0908 10.2154L51.2569 9.41745ZM24.6836 72H9.79102V74H24.6836V72ZM10.699 73.4191L38.238 13.7511L36.4221 12.913L8.88306 72.5809L10.699 73.4191ZM37.3301 12.332H1.97852V14.332H37.3301V12.332ZM2.97852 13.332V1.90625H0.978516V13.332H2.97852ZM1.97852 2.90625H52.1738V0.90625H1.97852V2.90625ZM51.1738 1.90625V9.81641H53.1738V1.90625H51.1738Z" fill="#E6E3E3"/>
</svg>
