<svg width="38" height="60" viewBox="0 0 38 60" fill="none" xmlns="http://www.w3.org/2000/svg">
<path d="M35.2383 17.0195C35.2383 19.7871 34.502 22.25 33.0293 24.4082C31.582 26.5664 29.6143 28.2549 27.126 29.4736C30.0205 30.7178 32.3057 32.5332 33.9814 34.9199C35.6826 37.3066 36.5332 40.0107 36.5332 43.0322C36.5332 47.8311 34.9082 51.6523 31.6582 54.4961C28.4336 57.3398 24.1807 58.7617 18.8994 58.7617C13.5674 58.7617 9.28906 57.3398 6.06445 54.4961C2.86523 51.627 1.26562 47.8057 1.26562 43.0322C1.26562 40.0361 2.07812 37.332 3.70312 34.9199C5.35352 32.5078 7.62598 30.6797 10.5205 29.4355C8.05762 28.2168 6.11523 26.5283 4.69336 24.3701C3.27148 22.2119 2.56055 19.7617 2.56055 17.0195C2.56055 12.3477 4.05859 8.64062 7.05469 5.89844C10.0508 3.15625 13.999 1.78516 18.8994 1.78516C23.7744 1.78516 27.71 3.15625 30.7061 5.89844C33.7275 8.64062 35.2383 12.3477 35.2383 17.0195ZM29.4873 42.8799C29.4873 39.7822 28.4971 37.2559 26.5166 35.3008C24.5615 33.3457 21.9971 32.3682 18.8232 32.3682C15.6494 32.3682 13.0977 33.333 11.168 35.2627C9.26367 37.1924 8.31152 39.7314 8.31152 42.8799C8.31152 46.0283 9.23828 48.5039 11.0918 50.3066C12.9707 52.1094 15.5732 53.0107 18.8994 53.0107C22.2002 53.0107 24.79 52.1094 26.6689 50.3066C28.5479 48.4785 29.4873 46.0029 29.4873 42.8799ZM18.8994 7.57422C16.1318 7.57422 13.8848 8.4375 12.1582 10.1641C10.457 11.8652 9.60645 14.1885 9.60645 17.1338C9.60645 19.9521 10.4443 22.2373 12.1201 23.9893C13.8213 25.7158 16.0811 26.5791 18.8994 26.5791C21.7178 26.5791 23.9648 25.7158 25.6406 23.9893C27.3418 22.2373 28.1924 19.9521 28.1924 17.1338C28.1924 14.3154 27.3164 12.0176 25.5645 10.2402C23.8125 8.46289 21.5908 7.57422 18.8994 7.57422Z" fill="black"/>
<path d="M33.0293 24.4082L32.2032 23.8445L32.1988 23.8513L33.0293 24.4082ZM27.126 29.4736L26.6861 28.5756L24.7315 29.5329L26.7311 30.3924L27.126 29.4736ZM33.9814 34.9199L33.163 35.4946L33.1671 35.5003L33.9814 34.9199ZM31.6582 54.4961L30.9997 53.7435L30.9968 53.7461L31.6582 54.4961ZM6.06445 54.4961L5.39677 55.2406L5.40303 55.2461L6.06445 54.4961ZM3.70312 34.9199L2.8778 34.3552L2.87377 34.3612L3.70312 34.9199ZM10.5205 29.4355L10.9154 30.3543L12.9043 29.4994L10.964 28.5393L10.5205 29.4355ZM30.7061 5.89844L30.0309 6.63612L30.034 6.63894L30.7061 5.89844ZM26.5166 35.3008L25.8095 36.0079L25.8141 36.0124L26.5166 35.3008ZM11.168 35.2627L10.4608 34.5556L10.4562 34.5603L11.168 35.2627ZM11.0918 50.3066L10.3946 51.0235L10.3995 51.0282L11.0918 50.3066ZM26.6689 50.3066L27.3613 51.0282L27.3663 51.0234L26.6689 50.3066ZM12.1201 23.9893L11.3975 24.6805L11.4026 24.6858L11.4078 24.6911L12.1201 23.9893ZM25.6406 23.9893L24.9232 23.2926L24.923 23.2928L25.6406 23.9893ZM34.2383 17.0195C34.2383 19.5986 33.5557 21.8626 32.2033 23.8446L33.8553 24.9718C35.4482 22.6374 36.2383 19.9756 36.2383 17.0195H34.2383ZM32.1988 23.8513C30.856 25.8537 29.0273 27.4289 26.6861 28.5756L27.5658 30.3717C30.2012 29.0809 32.3081 27.2792 33.8598 24.9652L32.1988 23.8513ZM26.7311 30.3924C29.4695 31.5694 31.6023 33.2718 33.163 35.4946L34.7999 34.3453C33.009 31.7946 30.5715 29.8662 27.5209 28.5549L26.7311 30.3924ZM33.1671 35.5003C34.7436 37.7121 35.5332 40.212 35.5332 43.0322H37.5332C37.5332 39.8095 36.6216 36.9012 34.7958 34.3395L33.1671 35.5003ZM35.5332 43.0322C35.5332 47.5786 34.007 51.1121 30.9997 53.7435L32.3167 55.2487C35.8094 52.1926 37.5332 48.0835 37.5332 43.0322H35.5332ZM30.9968 53.7461C27.9941 56.3941 23.9951 57.7617 18.8994 57.7617V59.7617C24.3662 59.7617 28.8731 58.2856 32.3196 55.2461L30.9968 53.7461ZM18.8994 57.7617C13.7501 57.7617 9.72685 56.3926 6.72588 53.7461L5.40303 55.2461C8.85128 58.2871 13.3846 59.7617 18.8994 59.7617V57.7617ZM6.73211 53.7516C3.76919 51.0944 2.26562 47.5567 2.26562 43.0322H0.265625C0.265625 48.0547 1.96128 52.1595 5.3968 55.2406L6.73211 53.7516ZM2.26562 43.0322C2.26562 40.2288 3.02221 37.7204 4.53248 35.4786L2.87377 34.3612C1.13404 36.9436 0.265625 39.8434 0.265625 43.0322H2.26562ZM4.52843 35.4846C6.06342 33.2412 8.18084 31.5297 10.9154 30.3543L10.1256 28.5168C7.07111 29.8297 4.64361 31.7745 2.87782 34.3552L4.52843 35.4846ZM10.964 28.5393C8.64959 27.394 6.84656 25.8207 5.52842 23.82L3.8583 24.9203C5.38391 27.2359 7.46565 29.0396 10.077 30.3318L10.964 28.5393ZM5.52842 23.82C4.22084 21.8352 3.56055 19.5787 3.56055 17.0195H1.56055C1.56055 19.9448 2.32213 22.5886 3.8583 24.9203L5.52842 23.82ZM3.56055 17.0195C3.56055 12.5819 4.97263 9.15967 7.72985 6.63611L6.37953 5.16076C3.14456 8.12158 1.56055 12.1135 1.56055 17.0195H3.56055ZM7.72985 6.63611C10.505 4.09612 14.1945 2.78516 18.8994 2.78516V0.785156C13.8035 0.785156 9.59654 2.21638 6.37953 5.16076L7.72985 6.63611ZM18.8994 2.78516C23.5773 2.78516 27.2548 4.09525 30.0309 6.63611L31.3812 5.16076C28.1652 2.21725 23.9715 0.785156 18.8994 0.785156V2.78516ZM30.034 6.63894C32.8154 9.16325 34.2383 12.5846 34.2383 17.0195H36.2383C36.2383 12.1107 34.6397 8.118 31.3781 5.15793L30.034 6.63894ZM30.4873 42.8799C30.4873 39.548 29.4123 36.7542 27.2191 34.5891L25.8141 36.0124C27.5818 37.7575 28.4873 40.0165 28.4873 42.8799H30.4873ZM27.2237 34.5937C25.053 32.423 22.2197 31.3682 18.8232 31.3682V33.3682C21.7744 33.3682 24.07 34.2684 25.8095 36.0079L27.2237 34.5937ZM18.8232 31.3682C15.4309 31.3682 12.6087 32.4077 10.4609 34.5556L11.8751 35.9698C13.5866 34.2583 15.8679 33.3682 18.8232 33.3682V31.3682ZM10.4562 34.5603C8.33739 36.7073 7.31152 39.5143 7.31152 42.8799H9.31152C9.31152 39.9486 10.19 37.6774 11.8797 35.9651L10.4562 34.5603ZM7.31152 42.8799C7.31152 46.2355 8.30662 48.9927 10.3946 51.0235L11.789 49.5898C10.1699 48.0151 9.31152 45.8212 9.31152 42.8799H7.31152ZM10.3995 51.0282C12.5122 53.0553 15.3898 54.0107 18.8994 54.0107V52.0107C15.7567 52.0107 13.4292 51.1634 11.7841 49.5851L10.3995 51.0282ZM18.8994 54.0107C22.3861 54.0107 25.2499 53.054 27.3613 51.0282L25.9766 49.5851C24.3302 51.1647 22.0143 52.0107 18.8994 52.0107V54.0107ZM27.3663 51.0234C29.4752 48.9714 30.4873 46.2172 30.4873 42.8799H28.4873C28.4873 45.7886 27.6205 47.9856 25.9716 49.5899L27.3663 51.0234ZM18.8994 6.57422C15.9052 6.57422 13.3908 7.51725 11.4511 9.45696L12.8653 10.8712C14.3787 9.35775 16.3585 8.57422 18.8994 8.57422V6.57422ZM11.4511 9.45696C9.52195 11.3861 8.60645 13.9865 8.60645 17.1338H10.6064C10.6064 14.3904 11.3921 12.3444 12.8653 10.8712L11.4511 9.45696ZM8.60645 17.1338C8.60645 20.1647 9.51488 22.7123 11.3975 24.6805L12.8428 23.298C11.3738 21.7623 10.6064 19.7396 10.6064 17.1338H8.60645ZM11.4078 24.6911C13.3276 26.6396 15.8605 27.5791 18.8994 27.5791V25.5791C16.3016 25.5791 14.3149 24.792 12.8324 23.2874L11.4078 24.6911ZM18.8994 27.5791C21.938 27.5791 24.4618 26.6396 26.3582 24.6857L24.923 23.2928C23.4679 24.792 21.4976 25.5791 18.8994 25.5791V27.5791ZM26.3581 24.6859C28.2685 22.7184 29.1924 20.169 29.1924 17.1338H27.1924C27.1924 19.7353 26.4151 21.7562 24.9232 23.2926L26.3581 24.6859ZM29.1924 17.1338C29.1924 14.0897 28.2374 11.5275 26.2766 9.53823L24.8523 10.9422C26.3954 12.5077 27.1924 14.5412 27.1924 17.1338H29.1924ZM26.2766 9.53823C24.321 7.55429 21.8353 6.57422 18.8994 6.57422V8.57422C21.3464 8.57422 23.304 9.37149 24.8523 10.9422L26.2766 9.53823Z" fill="#525151"/>
</svg>
