<svg width="38" height="60" viewBox="0 0 38 60" fill="none" xmlns="http://www.w3.org/2000/svg">
<path d="M29.6113 33.625C28.1387 35.377 26.374 36.7861 24.3174 37.8525C22.2861 38.9189 20.0518 39.4521 17.6143 39.4521C14.415 39.4521 11.6221 38.665 9.23535 37.0908C6.87402 35.5166 5.0459 33.3076 3.75098 30.4639C2.45605 27.5947 1.80859 24.4336 1.80859 20.9805C1.80859 17.2734 2.50684 13.9346 3.90332 10.9639C5.3252 7.99316 7.33105 5.7207 9.9209 4.14648C12.5107 2.57227 15.5322 1.78516 18.9854 1.78516C24.4697 1.78516 28.7861 3.8418 31.9346 7.95508C35.1084 12.043 36.6953 17.6289 36.6953 24.7129V26.7695C36.6953 37.5605 34.5625 45.4443 30.2969 50.4209C26.0312 55.3721 19.5947 57.9111 10.9873 58.0381H9.61621V52.0967H11.1016C16.916 51.9951 21.3848 50.4844 24.5078 47.5645C27.6309 44.6191 29.332 39.9727 29.6113 33.625ZM18.7568 33.625C21.1182 33.625 23.2891 32.9014 25.2695 31.4541C27.2754 30.0068 28.7354 28.2168 29.6494 26.084V23.2656C29.6494 18.6445 28.6465 14.8867 26.6406 11.9922C24.6348 9.09766 22.0957 7.65039 19.0234 7.65039C15.9258 7.65039 13.4375 8.84375 11.5586 11.2305C9.67969 13.5918 8.74023 16.7148 8.74023 20.5996C8.74023 24.3828 9.6416 27.5059 11.4443 29.9688C13.2725 32.4062 15.71 33.625 18.7568 33.625Z" fill="black"/>
<path d="M29.6113 33.625L30.6104 33.669L30.7397 30.7285L28.8458 32.9815L29.6113 33.625ZM24.3174 37.8525L23.8571 36.9648L23.8525 36.9671L24.3174 37.8525ZM9.23535 37.0908L8.68064 37.9229L8.68476 37.9256L9.23535 37.0908ZM3.75098 30.4639L2.8395 30.8752L2.84089 30.8783L3.75098 30.4639ZM3.90332 10.9639L3.00129 10.5321L2.99833 10.5384L3.90332 10.9639ZM31.9346 7.95508L31.1405 8.56291L31.1447 8.56834L31.9346 7.95508ZM30.2969 50.4209L31.0545 51.0736L31.0561 51.0717L30.2969 50.4209ZM10.9873 58.0381V59.0381H10.9947L11.0021 59.038L10.9873 58.0381ZM9.61621 58.0381H8.61621V59.0381H9.61621V58.0381ZM9.61621 52.0967V51.0967H8.61621V52.0967H9.61621ZM11.1016 52.0967V53.0967H11.1103L11.119 53.0965L11.1016 52.0967ZM24.5078 47.5645L25.1908 48.2949L25.1939 48.292L24.5078 47.5645ZM25.2695 31.4541L24.6844 30.6431L24.6795 30.6467L25.2695 31.4541ZM29.6494 26.084L30.5686 26.4779L30.6494 26.2892V26.084H29.6494ZM11.5586 11.2305L12.3411 11.8531L12.3443 11.849L11.5586 11.2305ZM11.4443 29.9688L10.6373 30.5594L10.6443 30.5688L11.4443 29.9688ZM28.8458 32.9815C27.4589 34.6315 25.7984 35.9582 23.8571 36.9648L24.7777 38.7403C26.9497 37.6141 28.8184 36.1224 30.3768 34.2685L28.8458 32.9815ZM23.8525 36.9671C21.9736 37.9536 19.9002 38.4521 17.6143 38.4521V40.4521C20.2033 40.4521 22.5986 39.8843 24.7822 38.7379L23.8525 36.9671ZM17.6143 38.4521C14.5867 38.4521 11.9902 37.7099 9.78595 36.256L8.68476 37.9256C11.2539 39.6201 14.2434 40.4521 17.6143 40.4521V38.4521ZM9.79005 36.2588C7.59922 34.7982 5.88682 32.7413 4.66106 30.0495L2.84089 30.8783C4.20498 33.8739 6.14882 36.235 8.68065 37.9229L9.79005 36.2588ZM4.66244 30.0525C3.43133 27.3247 2.80859 24.3056 2.80859 20.9805H0.808594C0.808594 24.5616 1.48078 27.8647 2.83951 30.8752L4.66244 30.0525ZM2.80859 20.9805C2.80859 17.4014 3.48204 14.2106 4.80831 11.3893L2.99833 10.5384C1.53163 13.6585 0.808594 17.1455 0.808594 20.9805H2.80859ZM4.80532 11.3956C6.15098 8.58414 8.03071 6.46567 10.4403 5.00101L9.40148 3.29196C6.6314 4.97574 4.49941 7.40219 3.00132 10.5321L4.80532 11.3956ZM10.4403 5.00101C12.8527 3.53463 15.6893 2.78516 18.9854 2.78516V0.785156C15.3751 0.785156 12.1688 1.6099 9.40148 3.29196L10.4403 5.00101ZM18.9854 2.78516C24.1797 2.78516 28.1938 4.71323 31.1405 8.56289L32.7286 7.34726C29.3784 2.97037 24.7598 0.785156 18.9854 0.785156V2.78516ZM31.1447 8.56834C34.1399 12.4261 35.6953 17.7701 35.6953 24.7129H37.6953C37.6953 17.4877 36.0769 11.6598 32.7245 7.34182L31.1447 8.56834ZM35.6953 24.7129V26.7695H37.6953V24.7129H35.6953ZM35.6953 26.7695C35.6953 37.4654 33.5748 45.0601 29.5376 49.7701L31.0561 51.0717C35.5502 45.8286 37.6953 37.6557 37.6953 26.7695H35.6953ZM29.5393 49.7682C25.5148 54.4394 19.39 56.914 10.9726 57.0382L11.0021 59.038C19.7994 58.9082 26.5477 56.3047 31.0545 51.0736L29.5393 49.7682ZM10.9873 57.0381H9.61621V59.0381H10.9873V57.0381ZM10.6162 58.0381V52.0967H8.61621V58.0381H10.6162ZM9.61621 53.0967H11.1016V51.0967H9.61621V53.0967ZM11.119 53.0965C17.0909 52.9922 21.8304 51.4367 25.1908 48.2949L23.8249 46.834C20.9391 49.532 16.7411 50.998 11.0841 51.0968L11.119 53.0965ZM25.1939 48.292C28.5802 45.0984 30.3251 40.1531 30.6104 33.669L28.6123 33.581C28.339 39.7922 26.6815 44.1399 23.8217 46.8369L25.1939 48.292ZM18.7568 34.625C21.3389 34.625 23.7149 33.8287 25.8595 32.2615L24.6795 30.6467C22.8632 31.974 20.8974 32.625 18.7568 32.625V34.625ZM25.8546 32.2651C27.9975 30.7189 29.5783 28.7885 30.5686 26.4779L28.7303 25.6901C27.8924 27.6451 26.5533 29.2947 24.6844 30.6432L25.8546 32.2651ZM30.6494 26.084V23.2656H28.6494V26.084H30.6494ZM30.6494 23.2656C30.6494 18.5039 29.6157 14.5296 27.4626 11.4226L25.8187 12.5618C27.6773 15.2438 28.6494 18.7852 28.6494 23.2656H30.6494ZM27.4626 11.4226C25.3015 8.30411 22.4755 6.65039 19.0234 6.65039V8.65039C21.7159 8.65039 23.968 9.8912 25.8187 12.5618L27.4626 11.4226ZM19.0234 6.65039C15.6263 6.65039 12.8457 7.97883 10.7729 10.6119L12.3443 11.849C14.0293 9.70867 16.2252 8.65039 19.0234 8.65039V6.65039ZM10.7761 10.6078C8.72023 13.1915 7.74023 16.5545 7.74023 20.5996H9.74023C9.74023 16.8752 10.6391 13.992 12.3411 11.8531L10.7761 10.6078ZM7.74023 20.5996C7.74023 24.5436 8.68182 27.8877 10.6374 30.5594L12.2513 29.3781C10.6014 27.124 9.74023 24.2221 9.74023 20.5996H7.74023ZM10.6443 30.5688C12.6613 33.2581 15.3952 34.625 18.7568 34.625V32.625C16.0247 32.625 13.8836 31.5544 12.2443 29.3687L10.6443 30.5688Z" fill="#525151"/>
</svg>
